<svg width="401" height="100" viewBox="0 0 401 100" fill="none" xmlns="http://www.w3.org/2000/svg">
<path fill-rule="evenodd" clip-rule="evenodd" d="M23.6327 9.4785H42.6801C65.8436 9.4785 84.6232 28.2581 84.6232 51.4216V58.0567C84.6232 81.2202 65.8436 99.9998 42.6801 99.9998H9.97867C4.74408 99.9998 0.5 95.7558 0.5 90.5212V7.12305C0.5 0.663332 8.41943 -2.44804 12.8152 2.28419L16.6896 6.45243C18.4834 8.38134 20.9976 9.4785 23.6327 9.4785ZM42.8081 67.2439C49.09 67.2439 54.1825 62.1515 54.1825 55.8695V53.6088C54.1825 47.3268 49.09 42.2344 42.8081 42.2344H42.3152C36.0332 42.2344 30.9408 47.3268 30.9408 53.6088V55.8695C30.9408 62.1515 36.0332 67.2439 42.3152 67.2439H42.8081ZM136.282 9.47876H132.727C110.479 9.47876 92.4431 27.5143 92.4431 49.7631V59.7157C92.4431 81.9645 110.479 100 132.727 100H136.282C158.531 100 176.566 81.9645 176.566 59.7157V49.7631C176.566 27.5143 158.531 9.47876 136.282 9.47876ZM146.126 55.8698C146.126 62.1517 141.033 67.2442 134.751 67.2442H134.258C127.976 67.2442 122.884 62.1517 122.884 55.8698V53.6091C122.884 47.3271 127.976 42.2347 134.258 42.2347H134.751C141.033 42.2347 146.126 47.3271 146.126 53.6091V55.8698ZM238.479 100H263.706V100.002C268.976 100.002 272.412 94.4716 270.081 89.7465L254.351 57.8887C253.372 55.9053 253.372 53.5783 254.351 51.5949L270.081 19.7371C272.412 15.0119 268.976 9.48113 263.706 9.48113H238.479C234.87 9.48113 231.576 11.5285 229.979 14.7631L223.86 28.8816C223.348 30.0617 221.588 29.6968 221.588 28.41V18.9574C221.588 13.7228 217.344 9.47876 212.109 9.47876H194.099C188.865 9.47876 184.621 13.7228 184.621 18.9574V90.5238C184.621 95.7584 188.865 100.002 194.099 100.002H212.109C217.344 100.002 221.588 95.7584 221.588 90.5238V81.0712C221.588 79.7844 223.348 79.4195 223.86 80.5996L229.979 94.7181C231.576 97.9527 234.872 100 238.479 100ZM354.768 37.9148V18.9574C354.768 13.7228 350.524 9.47876 345.289 9.47876H297.185C286.062 9.47876 277.043 18.4977 277.043 29.6209C277.043 34.2394 278.6 38.4906 281.213 41.8863H281.206L293.6 60.2371C294.13 61.0238 293.566 62.0854 292.618 62.0854H286.524C281.289 62.0854 277.045 66.3295 277.045 71.5641V90.5214C277.045 95.756 281.289 100 286.524 100H334.628C345.751 100 354.77 90.9811 354.77 79.8579C354.77 75.1707 353.166 70.8626 350.481 67.4408L350.491 67.4456L338.211 49.2418C337.68 48.4551 338.244 47.3935 339.194 47.3935H345.291C350.526 47.3935 354.77 43.1494 354.77 37.9148H354.768ZM391.021 9.47876H373.012C367.777 9.47876 363.533 13.7225 363.533 18.9574V90.5214C363.533 95.7563 367.777 100 373.012 100H391.021C396.256 100 400.5 95.7563 400.5 90.5214V18.9574C400.5 13.7225 396.256 9.47876 391.021 9.47876Z" fill="#6738FF"/>
</svg>
